<svg id="Capa_1" enable-background="new 0 0 512 512" height="64" viewBox="0 0 512 512" width="64" xmlns="http://www.w3.org/2000/svg"><g fill="#050402"><path d="m238.371 354.697h-90.119c-4.143 0-7.5 3.357-7.5 7.5s3.357 7.5 7.5 7.5h90.119c4.143 0 7.5-3.357 7.5-7.5s-3.357-7.5-7.5-7.5z"/><path d="m314.727 310.553c-16.384 0-29.713 13.329-29.713 29.712 0 16.384 13.329 29.713 29.713 29.713s29.713-13.329 29.713-29.713c-.001-16.383-13.33-29.712-29.713-29.712zm0 44.425c-8.112 0-14.713-6.601-14.713-14.713s6.601-14.712 14.713-14.712 14.713 6.6 14.713 14.712-6.601 14.713-14.713 14.713z"/><path d="m71.896 310.553c-16.383 0-29.712 13.329-29.712 29.712 0 16.384 13.329 29.713 29.712 29.713 16.384 0 29.713-13.329 29.713-29.713 0-16.383-13.329-29.712-29.713-29.712zm0 44.425c-8.112 0-14.712-6.601-14.712-14.713s6.6-14.712 14.712-14.712 14.713 6.6 14.713 14.712-6.6 14.713-14.713 14.713z"/><path d="m494.457 122.953h-19.863c-.948-7.652-2.549-15.068-4.831-22.16-1.27-3.944-5.5-6.109-9.437-4.843-3.943 1.269-6.111 5.494-4.843 9.437 6.272 19.493 4.958 36.776 5.127 39.752-3.625-1.742-7.468-3.095-11.469-4.036v-10.311c0-14.523-3.843-27.55-10.203-38.001-4.734-7.771-12.673-17.034-23.609-17.034h-167.525c-19.034 0-33.813 28.842-33.813 55.035v10.31c-3.992.942-7.833 2.308-11.469 4.055v-5.802c0-17.769 3.996-36.768 13.132-51.766 8.576-14.079 19.994-21.833 32.149-21.833h167.525c8.844 0 17.384 4.123 24.696 11.924 2.833 3.02 7.579 3.176 10.602.342 3.021-2.833 3.175-7.579.342-10.602-10.221-10.901-22.545-16.664-35.64-16.664h-167.524c-34.482 0-54.953 37.376-59.275 72.197h-14.449c-9.674 0-17.544 7.87-17.544 17.543v17.673c0 9.673 7.87 17.543 17.544 17.543h.132c-.494 1.272-.938 2.571-1.342 3.889h-72.461c-37.916 0-60.414 41.452-65.01 80.076h-16.76c-10.278 0-18.639 8.361-18.639 18.638v19.602c0 10.277 8.361 18.639 18.639 18.639h1.339c-2.992 7.26-4.653 15.203-4.653 23.529v47.416c-4.044 3.052-6.674 7.881-6.674 13.325v10.353c0 8.215 5.966 15.047 13.789 16.433v14.854c0 10.354 8.425 18.779 18.779 18.779h49.916c10.354 0 18.779-8.425 18.779-18.779v-14.582h36.867c2.869 2.321 6.515 3.718 10.484 3.718h72.095c3.969 0 7.615-1.397 10.484-3.718h36.866v14.582c0 10.354 8.425 18.779 18.78 18.779h49.915c10.355 0 18.78-8.425 18.78-18.779v-14.854c7.823-1.385 13.789-8.218 13.789-16.433v-10.353c0-5.444-2.63-10.273-6.674-13.325v-47.416c0-8.327-1.662-16.27-4.653-23.529h7.331c10.278 0 18.64-8.361 18.64-18.639v-19.602c0-.756-.059-1.498-.146-2.23h13.55v12.409c0 9.743 7.927 17.67 17.67 17.67h45.005c9.743 0 17.67-7.927 17.67-17.67v-12.779c7.098-1.548 12.432-7.873 12.432-15.428v-9.334c0-5.017-2.359-9.486-6.017-12.382v-42.383c0-7.22-1.374-14.122-3.849-20.477h5.526c9.673 0 17.543-7.87 17.543-17.543v-17.673c-.002-9.672-7.872-17.542-17.545-17.542zm-10.66 128v9.334c0 .425-.373.798-.798.798-11.316 0-90.042 0-101.933 0-.026-.011-1.017-.384-1.2-.445v-10.484h103.134c.424-.001.797.372.797.797zm-132.563 8.724c-.486-4.065-1.248-8.731-2.143-12.874h14.976c.411 0 .798.412.798.798v12.076zm5.066 124.446h-116.455c-2.903-2.349-6.688-3.719-10.485-3.719h-72.095c-3.648 0-7.469 1.278-10.485 3.719h-116.456v-44.038c0-26.307 21.673-46.96 46.96-46.96h23.274l21.909 35.742c6.595 10.757 18.528 17.438 31.146 17.438h79.399c12.618 0 24.552-6.683 31.145-17.438l21.909-35.742h23.275c10.651 0 21.676 3.767 30.525 11.379 10.776 9.27 16.434 22.165 16.434 35.581zm-125.237 30.774c0 .823-.721 1.703-1.704 1.703h-72.095c-.981 0-1.704-.879-1.704-1.703v-17.789c0-.862.778-1.704 1.704-1.704h72.095c.483 0 1.019.256 1.359.71.236.316.345.688.345.993zm-90.502-2.014c-35.115 0-78.183 0-115.206 0-.924 0-1.704-.78-1.704-1.704v-10.353c0-.769.545-1.433 1.261-1.634.162-.044.307-.069.443-.069h115.206zm-22.409-119.758h150.318l-17.104 27.903c-3.886 6.339-10.919 10.277-18.355 10.277h-79.399c-7.437 0-14.471-3.938-18.356-10.278zm161.7-114.505-14.731-24.033h132.893l-14.731 24.033c-3.371 5.499-9.472 8.915-15.921 8.915h-54.485c-8.431-5.343-17.495-7.935-26.659-7.935h-5.717c-.23-.322-.446-.649-.649-.98zm197.928 56.535h-104.016c-2.931-2.289-6.477-3.353-9.696-3.353h-19.168c-.942-2.706-2.081-5.608-3.111-7.981h30.404c4.143 0 7.5-3.357 7.5-7.5s-3.357-7.5-7.5-7.5h-38.448c-1.449-2.212-2.956-4.312-4.522-6.286h38.138c11.63 0 22.631-6.16 28.71-16.075l19.537-31.873h20.57c22.376 0 41.603 18.276 41.603 41.602v38.966zm-229.976-144.399h167.525c5.237 0 11.302 10.034 13.747 15.472l.001.001c3.36 7.473 5.064 15.737 5.064 24.563v8.795h-205.15v-8.795c0-21.972 12.175-40.036 18.813-40.036zm-73.724 69.956c-1.379 0-2.544-1.164-2.544-2.543v-17.673c0-1.379 1.165-2.543 2.544-2.543h13.45c-.005.47-.008.938-.008 1.401v16.276c-1.641 1.595-3.183 3.293-4.625 5.081h-8.817zm52.875-6.125h20.571l15.333 25.014h-74.036c6.413-14.726 21.336-25.014 38.132-25.014zm-162.903 64.621c9.667-15.868 22.579-24.607 36.356-24.607h185.808c33.934 0 51.04 47.652 51.04 82.449v7.747c-3.515-1.782-7.221-3.237-11.08-4.328v-10.565c0-31.429-17.41-65.303-39.96-65.303h-75.404c-4.143 0-7.5 3.357-7.5 7.5s3.357 7.5 7.5 7.5h75.404c10.46 0 24.96 23.21 24.96 50.303v8.25c-.613-.019-1.226-.028-1.836-.028-7.627 0-213.924 0-232.056 0-.61 0-1.223.01-1.836.028v-8.25c0-27.513 14.823-50.303 24.96-50.303h75.403c4.143 0 7.5-3.357 7.5-7.5s-3.357-7.5-7.5-7.5h-75.403c-22.462 0-39.96 33.532-39.96 65.303v10.565c-3.859 1.092-7.565 2.546-11.081 4.329v-7.748c0-19.643 4.385-40.934 14.685-57.842zm-45.413 82.348c-1.973 0-3.639-1.666-3.639-3.639v-19.602c0-1.973 1.666-3.639 3.639-3.639h15.749c-.014.799-.021 1.59-.021 2.373v18.409c-1.982 1.907-3.837 3.943-5.553 6.097h-10.175zm76.275 140.909c0 2.049-1.73 3.779-3.779 3.779h-49.916c-2.049 0-3.779-1.73-3.779-3.779v-14.582h57.475v14.582zm151.149-43.342h115.207c.137 0 .283.024.444.069.715.202 1.26.865 1.26 1.634v10.353c0 .924-.78 1.704-1.704 1.704-37.185 0-80.089 0-115.206 0v-13.76zm103.122 43.342c0 2.049-1.731 3.779-3.78 3.779h-49.915c-2.049 0-3.78-1.73-3.78-3.779v-14.582h57.476v14.582zm28.432-144.548c0 1.973-1.667 3.639-3.64 3.639h-16.167c-1.716-2.154-3.572-4.19-5.554-6.098-.007-19.112.015-18.644-.02-20.781h21.741c1.93 0 3.64 1.638 3.64 3.639zm93.748-9.423c0 1.447-1.223 2.67-2.67 2.67h-45.005c-1.447 0-2.67-1.223-2.67-2.67v-12.409h50.345zm25.635-130.325c0 1.379-1.164 2.543-2.543 2.543h-14.22c-1.439-1.784-2.985-3.477-4.627-5.074v-16.283c0-.466-.003-.933-.008-1.401h18.854c1.379 0 2.543 1.164 2.543 2.543v17.672z"/><path d="m441.035 168.823c-15.179 0-27.527 12.349-27.527 27.527s12.349 27.526 27.527 27.526 27.527-12.349 27.527-27.526c.001-15.178-12.348-27.527-27.527-27.527zm0 40.054c-6.907 0-12.527-5.619-12.527-12.526s5.62-12.527 12.527-12.527 12.527 5.62 12.527 12.527-5.62 12.526-12.527 12.526z"/></g></svg>