<svg id="Layer_3" enable-background="new 0 0 64 64" height="64" viewBox="0 0 64 64" width="64" xmlns="http://www.w3.org/2000/svg"><path d="m32 1c-17.094 0-31 13.907-31 31s13.906 31 31 31 31-13.907 31-31-13.906-31-31-31zm0 60c-15.99 0-29-13.009-29-29s13.01-29 29-29 29 13.009 29 29-13.01 29-29 29z"/><path d="m32 7c-13.785 0-25 11.215-25 25s11.215 25 25 25 25-11.215 25-25-11.215-25-25-25zm10 28c-.404 0-.77.244-.924.617-.155.374-.069.804.217 1.09l9.094 9.094c-.452.601-.933 1.178-1.441 1.731l-11.348-11.348c.686-.915 1.151-2.001 1.322-3.184h16.055c-.029.675-.09 1.341-.177 2zm12.446 2c-.57 2.559-1.565 4.959-2.911 7.121l-7.121-7.121zm-17.739 4.293c-.286-.286-.716-.371-1.09-.217-.374.155-.617.52-.617.924v12.798c-.659.086-1.325.148-2 .177v-16.055c1.183-.17 2.269-.636 3.184-1.322l11.348 11.348c-.553.507-1.13.989-1.731 1.441zm7.414 10.242c-2.162 1.346-4.561 2.341-7.121 2.911v-10.032zm-17.121 2.911c-2.559-.57-4.959-1.565-7.121-2.911l7.121-7.121zm1.383-13.37c-.373-.154-.804-.069-1.09.217l-9.094 9.094c-.601-.452-1.178-.933-1.731-1.441l11.348-11.348c.915.686 2.001 1.151 3.184 1.322v16.055c-.675-.029-1.341-.09-2-.177v-12.798c0-.404-.243-.769-.617-.924zm-5.676-4.369c.286-.286.372-.716.217-1.09-.154-.373-.52-.617-.924-.617h-12.798c-.086-.659-.148-1.325-.177-2h16.055c.17 1.183.636 2.269 1.322 3.184l-11.348 11.348c-.507-.553-.989-1.13-1.441-1.731zm-10.242 7.414c-1.346-2.162-2.341-4.561-2.911-7.121h10.032zm9.535-15.121c.404 0 .77-.244.924-.617.155-.374.069-.804-.217-1.09l-9.094-9.094c.452-.601.933-1.178 1.441-1.731l11.348 11.348c-.686.915-1.152 2.001-1.322 3.184h-16.055c.029-.675.09-1.341.177-2zm-12.446-2c.57-2.559 1.565-4.959 2.911-7.121l7.121 7.121zm17.739-4.293c.191.191.447.293.707.293.129 0 .259-.025.383-.076.374-.155.617-.52.617-.924v-12.798c.659-.086 1.325-.148 2-.177v16.055c-1.183.17-2.269.636-3.184 1.322l-11.348-11.348c.553-.507 1.13-.989 1.731-1.441zm-7.414-10.242c2.162-1.346 4.561-2.341 7.121-2.911v10.032zm17.121-2.911c2.559.57 4.959 1.565 7.121 2.911l-7.121 7.121zm-1.383 13.37c.124.051.254.076.383.076.26 0 .516-.102.707-.293l9.094-9.094c.601.452 1.178.933 1.731 1.441l-11.348 11.348c-.915-.686-2.001-1.152-3.184-1.322v-16.055c.675.029 1.341.09 2 .177v12.798c0 .404.243.769.617.924zm-3.617 14.076c-2.757 0-5-2.243-5-5s2.243-5 5-5 5 2.243 5 5-2.243 5-5 5zm6.92-6c-.17-1.183-.636-2.269-1.322-3.184l11.348-11.348c.507.553.989 1.13 1.441 1.731l-9.094 9.094c-.286.286-.372.716-.217 1.09.154.373.52.617.924.617h12.798c.086.659.148 1.325.177 2zm5.494-4 7.121-7.121c1.346 2.162 2.341 4.561 2.911 7.121z"/><path d="m32 29c-1.654 0-3 1.346-3 3s1.346 3 3 3 3-1.346 3-3-1.346-3-3-3zm0 4c-.552 0-1-.449-1-1s.448-1 1-1 1 .449 1 1-.448 1-1 1z"/></svg>