<svg id="Capa_1" enable-background="new 0 0 512.34 512.34" height="64" viewBox="0 0 512.34 512.34" width="64" xmlns="http://www.w3.org/2000/svg"><g><path d="m410.581 184.638c-4.142 0-7.5-3.358-7.5-7.5 0-4.142 3.358-7.5 7.5-7.5 4.142 0 7.5 3.358 7.5 7.5 0 4.142-3.357 7.5-7.5 7.5z"/><g><path d="m509.801 206.406-61.723-61.723v-20.581c18.032-12.131 29.92-32.723 29.92-56.042 0-37.22-30.28-67.5-67.5-67.5-23.058 0-43.443 11.628-55.625 29.32h-42.035c-4.142 0-7.5 3.358-7.5 7.5s3.358 7.5 7.5 7.5h34.261c-5.31 14.975-5.463 29.975-.461 45h-102.525c5.253-14.836 5.005-30.722-.035-45h36.08c4.142 0 7.5-3.358 7.5-7.5s-3.358-7.5-7.5-7.5h-43.567c-15.64-23.482-46.316-35.006-73.574-27.702-32.377 8.676-54.51 42.395-49.208 75.691l-44.875 77.715c-38.779 6.581-68.593 41.754-68.593 81.267 0 50.135 46.394 89.336 95.72 81.434l77.989 65.445c-.028.879-.053 73.61-.053 73.61h-42.5c-4.142 0-7.5 3.358-7.5 7.5v40c0 4.142 3.358 7.5 7.5 7.5h250c4.142 0 7.5-3.358 7.5-7.5v-40c0-4.142-3.358-7.5-7.5-7.5h-42.5v-14.61c0-4.142-3.358-7.5-7.5-7.5s-7.5 3.358-7.5 7.5v14.61h-81.16c-4.142 0-7.5 3.358-7.5 7.5s3.358 7.5 7.5 7.5h131.16v25h-235v-25h71.16c4.142 0 7.5-3.358 7.5-7.5s-3.358-7.5-7.5-7.5h-21.16v-70.97c0-36.233 31.399-67.5 67.5-67.5 37.22 0 67.5 30.28 67.5 67.5v23.68c0 4.142 3.358 7.5 7.5 7.5s7.5-3.358 7.5-7.5v-23.68c0-45.491-37.009-82.5-82.5-82.5-4.359 0-8.724.354-13.031 1.034l-78.222-65.625c.311-10.657-1.426-21.355-5.211-31.463l44.741-77.5c12.624-4.858 23.871-13.503 31.834-25.437h117.359c5.004 7.656 11.51 14.243 19.11 19.325v20.319l-61.883 61.883c-1.407 1.406-2.197 3.314-2.197 5.303v40c0 1.989.79 3.897 2.197 5.303l74 74c4.29 4.291 12.803 1.891 12.803-5.303v-60c0-1.989-.79-3.897-2.197-5.303l-28.697-28.697 22.283-22.283c14.089 8.755 28.185 8.777 42.288.067l22.216 22.216-28.697 28.697c-1.407 1.406-2.197 3.314-2.197 5.303v60c0 7.194 8.513 9.595 12.803 5.303l74-74c1.407-1.406 2.197-3.314 2.197-5.303v-40c.002-1.989-.788-3.896-2.195-5.303zm-474.689 78.174c-25.802-25.802-25.86-69.6 0-95.459 25.772-25.771 69.629-25.829 95.459 0 26.318 26.318 26.318 69.142 0 95.459-26.002 26.002-69.37 26.088-95.459 0zm190.782 25.161c-24.259 9.736-42.975 31.122-49.393 56.463l-62.892-52.776c24.272-9.748 42.922-31.11 49.243-56.577zm-73.936-117.936c-14.337-21.988-38.837-36.039-65.07-37.316l33.05-57.237c11.714 23.866 38.521 39.237 64.982 37.457zm2.28-78.961c-25.07-14.474-33.69-46.646-19.216-71.716 14.226-24.64 47.34-33.291 71.716-19.216 25.07 14.474 33.691 46.646 19.217 71.716-14.475 25.069-46.647 33.691-71.717 19.216zm256.26-97.284c28.949 0 52.5 23.551 52.5 52.5s-23.551 52.5-52.5 52.5-52.5-23.551-52.5-52.5 23.551-52.5 52.5-52.5zm-59.303 221.453 31.803 31.803v38.787l-59-59v-33.787l49.08-49.08c-.834 10.458.468 24.425 5.885 32.902l-27.768 27.768c-2.929 2.929-2.929 7.678 0 10.607zm36.883-58.503v-46.793c15.003 5.142 30.003 5.124 45-.054v46.848c0 12.407-10.093 22.5-22.5 22.5s-22.5-10.094-22.5-22.501zm108.92 70.093-59 59v-38.787l31.803-31.803c2.929-2.929 2.929-7.678 0-10.606l-27.67-27.67c5.445-8.465 6.778-22.38 5.947-32.84l48.92 48.92z"/><path d="m213.998 384.332c0 23.435 19.065 42.5 42.5 42.5s42.5-19.065 42.5-42.5-19.065-42.5-42.5-42.5-42.5 19.065-42.5 42.5zm70 0c0 15.164-12.336 27.5-27.5 27.5s-27.5-12.336-27.5-27.5 12.336-27.5 27.5-27.5 27.5 12.336 27.5 27.5z"/><path d="m112.894 266.902c16.571-16.571 16.571-43.533 0-60.104-16.397-16.397-43.707-16.396-60.104 0-16.396 16.396-16.397 43.708 0 60.104 16.396 16.397 43.708 16.396 60.104 0zm-57.552-30.052c0-7.346 2.86-14.251 8.055-19.445 12.964-10.74 25.927-10.74 38.891 0 10.722 10.722 10.722 28.168 0 38.891-12.964 10.74-25.927 10.74-38.891 0-5.194-5.195-8.055-12.101-8.055-19.446z"/><path d="m194.238 43.562c-13.133-7.582-29.984-3.066-37.566 10.066s-3.066 29.984 10.066 37.565c13.101 7.564 30.078 2.905 37.565-10.065 7.582-13.132 3.067-29.984-10.065-37.566zm-2.924 30.066c-3.805 5.678-10.825 7.678-17.075 4.575-6.174-3.065-8.021-11.106-4.576-17.075 3.447-5.97 11.106-8.022 17.076-4.576 5.968 3.447 8.021 11.107 4.575 17.076z"/><path d="m410.498 95.56c15.164 0 27.5-12.336 27.5-27.5s-12.336-27.5-27.5-27.5-27.5 12.336-27.5 27.5 12.337 27.5 27.5 27.5zm0-40c6.893 0 12.5 5.607 12.5 12.5s-5.607 12.5-12.5 12.5-12.5-5.607-12.5-12.5 5.608-12.5 12.5-12.5z"/></g></g></svg>