<svg height="64" viewBox="0 0 64 64" width="64" xmlns="http://www.w3.org/2000/svg"><g id="Airbrush-paint-car_repair-car_door-car_Parts" data-name="Airbrush-paint-car repair-car door-car Parts"><path d="m59 2h-23.04a3 3 0 0 0 -2.34 1.11l-8.62 10.68v-.79a1 1 0 0 0 -1-1h-14a1 1 0 0 0 -1 1v18a1 1 0 0 0 .5.87l4.5 2.57v2.56h-6a1 1 0 0 0 -1-1h-4a1 1 0 0 0 -1 1v8a1 1 0 0 0 1 1h4a1 1 0 0 0 1-1h.74l-3.71 15.77a1 1 0 0 0 .19.85.986.986 0 0 0 .78.38h7a1 1 0 0 0 .97-.77l.53-2.23h44.5a3.009 3.009 0 0 0 3-3v-51a3.009 3.009 0 0 0 -3-3zm-53 42h-2v-6h2zm19-19.64 13.47-16.36h17.53v20h-31zm-14-10.36h12v5.45a5.419 5.419 0 0 1 -.9-.35 5.705 5.705 0 0 0 -2.77-.66 5.692 5.692 0 0 0 -2.76.66 3.723 3.723 0 0 1 -1.91.46 3.71 3.71 0 0 1 -1.9-.46 5.793 5.793 0 0 0 -1.76-.59zm0 16.42v-9.87a5.419 5.419 0 0 1 .9.35 5.692 5.692 0 0 0 2.76.66 5.705 5.705 0 0 0 2.77-.66 3.682 3.682 0 0 1 1.9-.46 3.655 3.655 0 0 1 1.9.46 5.968 5.968 0 0 0 1.77.59v8.93l-4.5 2.57a1 1 0 0 0 -.5.87v3.14h-2v-3.14a1 1 0 0 0 -.5-.87zm-3 12.58v-4h17v4zm12.67 2-1.42 5h-2.63l1.17-5zm-8.46 15h-4.95l3.53-15h4.95zm47.79-4a1 1 0 0 1 -1 1h-44.03l1.18-5h3.85a1 1 0 0 0 .96-.73l1.79-6.27h2.25a1 1 0 0 0 1 1h3a1 1 0 0 0 .51-.14l5-3a.99.99 0 0 0 .49-.86v-2a.99.99 0 0 0 -.49-.86l-5-3a1 1 0 0 0 -.51-.14h-3a1 1 0 0 0 -1 1h-5v-2.56l4.5-2.57a1 1 0 0 0 .5-.87v-1h32a1 1 0 0 0 1-1v-22a1 1 0 0 0 -1-1h-19a.992.992 0 0 0 -.77.36l-12.23 14.85v-4.24l10.18-12.6a.976.976 0 0 1 .78-.37h23.04a1 1 0 0 1 1 1zm-33-12v-6h1v6zm3-.77v-4.46l3 1.8v.86z"/><path d="m55 32h-3a3 3 0 0 0 0 6h3a3 3 0 0 0 0-6zm0 4h-3a1 1 0 0 1 0-2h3a1 1 0 0 1 0 2z"/><path d="m38 40h2v2h-2z"/><path d="m42 40h2v2h-2z"/><path d="m46 40h2v2h-2z"/><path d="m35.828 42.828h2v2h-2z" transform="matrix(.707 -.707 .707 .707 -20.204 38.879)"/><path d="m38.657 45.657h2v2h-2z" transform="matrix(.707 -.707 .707 .707 -21.376 41.707)"/><path d="m41.485 48.485h2v2h-2z" transform="matrix(.707 -.707 .707 .707 -22.548 44.536)"/><path d="m35.828 37.172h2v2h-2z" transform="matrix(.707 -.707 .707 .707 -16.205 37.222)"/><path d="m38.657 34.343h2v2h-2z" transform="matrix(.707 -.707 .707 .707 -13.376 38.393)"/><path d="m41.485 31.515h2v2h-2z" transform="matrix(.707 -.707 .707 .707 -10.548 39.565)"/></g></svg>