<?xml version="1.0" encoding="UTF-8"?>
<svg xmlns="http://www.w3.org/2000/svg" viewBox="0 0 512 512" width="64" height="64"><g id="outline"><path d="M32,392a8,8,0,0,0-8,8v64a8,8,0,0,0,8,8H256a39.754,39.754,0,0,0,20.788-5.839C299.732,474.741,331.115,480,360,480c50.309,0,120-16.681,120-48V160a120,120,0,0,0-240,0v40H224a8,8,0,0,0-8,8V335.432l-90.108-90.108a8,8,0,0,0-11.313,0L69.324,290.579a8,8,0,0,0,0,11.313L159.432,392ZM464,256v96a16,16,0,0,1-32,0V304a24,24,0,0,0-48,0v8a16,16,0,0,1-32,0V255.861c2.681.086,5.352.139,8,.139,35.423,0,80.452-8.27,104-24.1Zm-30.684-27.293C412.437,235.778,385.03,240,360,240a248.109,248.109,0,0,1-64-8.451V208a8,8,0,0,0-8-8H261.354c4.873-4.073,13.172-8.589,25.33-12.707C307.562,180.222,334.97,176,360,176s52.437,4.222,73.316,11.293C454.512,194.472,464,202.866,464,208S454.512,221.528,433.316,228.707ZM280,399.432l-48-48V344h48ZM280,328H232V280h48Zm-30.059,64H182.059l-5.255-5.255L210.745,352.8ZM165.49,375.432,131.549,341.49l33.941-33.941,33.942,33.941ZM40,456V408H88v48Zm64-48h48v48H104Zm64,48V408h48v48Zm64,0V408h24a24,24,0,0,1,0,48Zm201.316-3.293C412.437,459.778,385.03,464,360,464c-24.161,0-50.046-3.869-70.4-10.335A39.756,39.756,0,0,0,296,432V248.1a261.115,261.115,0,0,0,40,6.774V312a32,32,0,0,0,64,0v-8a8,8,0,0,1,16,0v48A31.976,31.976,0,0,0,464,379.7V432C464,437.134,454.512,445.528,433.316,452.707ZM360,56A104.118,104.118,0,0,1,464,160v24.1C440.452,168.27,395.423,160,360,160s-80.452,8.27-104,24.1V160A104.118,104.118,0,0,1,360,56ZM232,216h48v48H232ZM86.294,296.235l33.941-33.941,33.942,33.941-33.942,33.942Z"/><circle cx="256" cy="432" r="11"/></g></svg>
