<?xml version="1.0"?>
<svg xmlns="http://www.w3.org/2000/svg" viewBox="0 0 64 64" width="64" height="64"><g id="outline"><path d="M22.246,46.016a2,2,0,1,0-.492,3.968,1.961,1.961,0,0,0,.252.016,2,2,0,0,0,.24-3.984ZM21.906,49l.083-.864L22.006,48Z"/><path d="M61.434,29.734l1.132-1.648a3.956,3.956,0,0,0-2.776-.678L45.943,29.217a4,4,0,0,0-2.99,1.975l-3.692,6.441-3.347-2.307a3.563,3.563,0,0,0-4.657.548l1.486,1.339a1.556,1.556,0,0,1,2.036-.24l2.537,1.748-.273.291-.979-.383A1,1,0,0,0,34.87,39l-.226.338a1.365,1.365,0,0,0-1.471-.22,3.978,3.978,0,0,0-1.268,1.043,3.536,3.536,0,0,0-1.84-1.018l-.643-.863a1,1,0,0,0-.751-.4.98.98,0,0,0-.788.323l-.463.506-.537-.778a1,1,0,0,0-1.446-.215l-.582.464-4.018-7.008a4.039,4.039,0,0,0-2.978-1.985L3.99,27.387a3.944,3.944,0,0,0-2.5.511l1.016,1.724a1.94,1.94,0,0,1,1.233-.25l5.472.71-.733,5.97-6.354-.8-.252,1.984,6.362.806-.854,6.946-5.257-.666L1.875,46.3l14.132,1.792a5.985,5.985,0,0,0,5.263,5.861,6.194,6.194,0,0,0,.742.045,5.986,5.986,0,0,0,5.769-4.42l3.1.392a.9.9,0,0,0,.126.008,1,1,0,0,0,.881-.531,1,1,0,0,0,.887.551.9.9,0,0,0,.126-.008l3.3-.417a6,6,0,0,0,5.061,4.38,6.194,6.194,0,0,0,.742.045,6,6,0,0,0,5.942-5.269A6.213,6.213,0,0,0,48,48.094L62.126,46.3l-.252-1.984-5.466.693-.855-6.948,6.573-.831-.252-1.984-6.565.829-.732-5.971,5.477-.715A1.938,1.938,0,0,1,61.434,29.734ZM11.2,30.34l6.409.832a2.034,2.034,0,0,1,1.5,1l3.231,5.639-11.87-1.5ZM25.97,48.487a4,4,0,0,1-7.94-.974h0A4,4,0,0,1,21.992,44a4.106,4.106,0,0,1,.494.03,4,4,0,0,1,3.484,4.457ZM30.777,42.9l-.632,4.96-2.16-.273A6,6,0,0,0,16.3,46.115l-6.938-.879.855-6.947,13.029,1.649,0,.047a1,1,0,0,0,1.622.738l.972-.774.641.929a1,1,0,0,0,.755.43,1.029,1.029,0,0,0,.806-.322l.494-.539.157.211a1,1,0,0,0,.675.394A1.45,1.45,0,0,1,30.777,42.9ZM44.688,32.187a2,2,0,0,1,1.5-.985l6.406-.837.731,5.963-11.871,1.5Zm1.282,16.3a4,4,0,0,1-7.94-.974h0A4,4,0,0,1,41.992,44a4.106,4.106,0,0,1,.494.03,4,4,0,0,1,3.484,4.457Zm1.722-2.37a6,6,0,0,0-11.646,1.152c-.013.106-.016.212-.024.318l-2.376.3-.634-4.956a2.012,2.012,0,0,1,.7-1.779,1.809,1.809,0,0,0,1.335.536,1,1,0,0,0,.72-.436l.312-.464.862.337a1,1,0,0,0,1.094-.247l.636-.678,14.9-1.882.855,6.949Z"/><path d="M42.246,46.016a2,2,0,1,0-.492,3.968,1.961,1.961,0,0,0,.252.016,2,2,0,0,0,.24-3.984ZM41.906,49l.083-.864L42.006,48Z"/><path d="M24.071,32.749l1.858-.744-2.676-6.689L28.4,29.177a1,1,0,0,0,1.558-.513l2.177-7.257,2.936,7.342a1,1,0,0,0,1.459.476l4.987-3.117L39.1,30.93l1.79.894,4-8a1,1,0,0,0-1.425-1.3L36.484,26.9l-3.555-8.89a.973.973,0,0,0-.974-.627,1,1,0,0,0-.913.712l-2.588,8.627L21.6,21.577a1,1,0,0,0-1.529,1.172Z"/><polygon points="10.707 20.084 12 18.791 13.293 20.084 14.707 18.67 13.414 17.377 14.707 16.084 13.293 14.67 12 15.963 10.707 14.67 9.293 16.084 10.586 17.377 9.293 18.67 10.707 20.084"/><rect x="16" y="20.675" width="2" height="6.403" transform="matrix(0.781, -0.624, 0.624, 0.781, -11.188, 15.841)"/><rect x="36.856" y="18.616" width="7.81" height="2" transform="translate(-1.932 34.568) rotate(-45)"/><polygon points="45.707 16.084 47 14.791 48.293 16.084 49.707 14.67 48.414 13.377 49.707 12.084 48.293 10.67 47 11.963 45.707 10.67 44.293 12.084 45.586 13.377 44.293 14.67 45.707 16.084"/><rect x="12.656" y="40.136" width="2" height="3.103" transform="translate(-29.687 48.448) rotate(-80.727)"/><rect x="48.349" y="40.281" width="3.114" height="2" transform="translate(-6.638 9.697) rotate(-10.41)"/></g></svg>
