<svg id="Layer_1" enable-background="new 0 0 512 512" height="64" viewBox="0 0 512 512" width="64" xmlns="http://www.w3.org/2000/svg"><g><path d="m503.708 122.083c-1.52-.76-23.859-11.559-78.915-20.346-.291-.052-.581-.106-.874-.14-38.658-6.116-93.272-11.222-167.919-11.222-182.196 0-245.119 30.414-247.708 31.708-5.082 2.542-8.292 7.735-8.292 13.417v271.125c0 4.351 1.89 8.488 5.178 11.337 2.745 2.378 6.237 3.663 9.822 3.663.71 0 1.425-.05 2.137-.153 1.223-.176 123.604-17.597 238.863-17.597 115.182 0 237.641 17.421 238.864 17.597 4.306.618 8.67-.662 11.958-3.511s5.178-6.985 5.178-11.336v-271.125c0-5.682-3.21-10.875-8.292-13.417zm-202.458 58.542v30.25h-90.5v-30.25zm180.75 208.887c-38.223-4.817-134.287-15.637-226-15.637s-187.777 10.82-226 15.637v-243.777c20.967-7.202 83.406-24.047 211-25.285v30.175h-45.25c-8.284 0-15 6.716-15 15v60.25c0 8.284 6.716 15 15 15h120.5c8.284 0 15-6.716 15-15v-60.25c0-8.284-6.716-15-15-15h-45.25v-30.175c48.172.467 87.056 3.158 117.924 6.715l-29.269 27.535c-5.511 5.185-6.298 13.662-1.835 19.772l36.566 50.071-30.88 32.049c-5.748 5.966-5.571 15.461.394 21.209 2.911 2.804 6.661 4.198 10.406 4.198 3.933 0 7.86-1.537 10.804-4.592l39.625-41.125c5.056-5.248 5.609-13.37 1.312-19.254l-36.188-49.553 37.114-34.914c28.052 4.819 45.695 9.962 55.028 13.168v243.783z"/></g></svg>