<?xml version="1.0"?>
<svg xmlns="http://www.w3.org/2000/svg" viewBox="0 0 512 512" width="64" height="64"><g id="Out_line" data-name="Out line"><rect x="311.84975" y="346.58107" width="16.00069" height="17.18161" transform="translate(-118.24445 546.28524) rotate(-71.56402)"/><rect x="377.3832" y="367.19602" width="16.00069" height="19.64117" transform="translate(-94.15285 623.40419) rotate(-71.5655)"/><rect x="344.06639" y="357.47829" width="16.001" height="16.86569" transform="matrix(0.31626, -0.94867, 0.94867, 0.31626, -106.40821, 584.18307)"/><rect x="313.54999" y="416.44567" width="16.00011" height="16.8655" transform="translate(-156.06446 188.65716) rotate(-26.56505)"/><rect x="298.44941" y="386.20956" width="16.00011" height="16.93538" transform="translate(-144.16409 178.74015) rotate(-26.56818)"/><path d="M239.69238,298.19824a7.99975,7.99975,0,0,0-5.752-9.959l-31.03113-7.75781A44.09985,44.09985,0,0,0,208,260V200a8.00008,8.00008,0,0,0-8-8H128a8.00008,8.00008,0,0,0-8,8v57.582l-20.84863-8.93555a8.001,8.001,0,0,0-10.5791,4.38282l-1.44245,3.60595-20.15863-8.063-5.94238,14.85546,20.15875,8.06348-2.38544,5.96338-20.86169-5.21533a7.99922,7.99922,0,0,0-9.70166,5.82031l-1.994,7.97559-20.04706-5.72754-4.3955,15.38476,20.55975,5.874-2.12323,8.49316a8.0001,8.0001,0,0,0,6.02588,9.75l6.89557,1.53223L32.28174,397.89551c-.04871.17871-.08277.35742-.11872.53662l-.00775-.00147-8,40A8.00012,8.00012,0,0,0,32,448v48H48V448H64a7.9993,7.9993,0,0,0,7.73242-5.94824l5.61609-21.16895,8.1217,2.707A8,8,0,0,0,96,416V330.86182l3.05664.6792a23.99523,23.99523,0,0,0,5.20068.57324A23.57806,23.57806,0,0,0,112,330.80566V352a7.99836,7.99836,0,0,0,1.34375,4.4375l16,24A7.99943,7.99943,0,0,0,136,384h32a8.00016,8.00016,0,0,0,6.65625-12.4375L160,349.57812V330.92969l19.88379,11.93066c.17682.106.36365.1875.54657.27881l-.008.01611,32,16a7.99955,7.99955,0,0,0,11.27-4.957L229.6,333.52148l19.20373,6.40137,5.05957-15.17969-19.8634-6.62109ZM57.8457,432H41.7583l4.30908-21.54443L62.14,415.813ZM80,404.90039,49.70947,394.80371,68.797,324.81689,80,327.30615Zm29.08691-90.50488a7.74326,7.74326,0,0,1-6.55957,1.52637l-44.77441-9.94922,4.06787-16.27149,44.2832,11.07031a7.78465,7.78465,0,0,1,2.98291,13.624ZM112,285.85107c-.658-.22705-1.32922-.42968-2.01514-.60107l-15.51721-3.87939L100.3833,266.582,112,271.56152ZM140.28125,368,128,349.57812V278.418l16,6.85742V352a7.99836,7.99836,0,0,0,1.34375,4.4375L153.05176,368Zm39.2832-43.99121L160,312.26953V289.44385l29.44971,4.90771ZM192,224H152v16h40v20a27.69813,27.69813,0,0,1-6.16754,17.52783l-31.567-5.26123-17.87482-7.66015A28.24785,28.24785,0,0,1,136,260V208h56Zm18.95605,116.53418-17.17254-8.58643,11.46338-34.39013,16.78875,4.19726Z"/><rect x="354.60083" y="292.42768" width="16.86572" height="16.00011" transform="translate(-96.03469 194.09566) rotate(-26.56818)"/><rect x="324.36472" y="307.52826" width="16.93559" height="16.00011" transform="translate(-105.97777 182.18239) rotate(-26.56818)"/><polygon points="306.313 319.844 279.454 333.273 266.296 328.888 261.237 344.067 274.394 348.453 287.823 375.313 302.134 368.158 290.8 345.489 313.468 334.154 306.313 319.844"/><path d="M495.09424,110.5332A53.47028,53.47028,0,0,0,472.1875,75.84375a37.60713,37.60713,0,0,1-5.71045-4.67969l-4.92969-4.93066-.00079-.00073.00031-.00025-10-10a136.51939,136.51939,0,0,0-74.5564-38.34888l-.00757-.0017-.0097-.00147-.01276-.00244-.00006.00049A135.771,135.771,0,0,0,354.41016,16h-100.25A215.99364,215.99364,0,0,0,101.42334,79.2627l-16.826,16.82592a72.01968,72.01968,0,0,0-55.99969,31.219,70.92109,70.92109,0,0,0-10.67237,24.11914A72.02241,72.02241,0,0,0,16,168v48a8.00008,8.00008,0,0,0,8,8h80V208H78.80627l19.99988-16H112V176H96a8.00033,8.00033,0,0,0-4.99756,1.75293L53.1936,208H32V168.22876a39.80665,39.80665,0,0,0,10.27734,3.58276l3.48828.7041a72.19319,72.19319,0,0,0,36.88721-2.29687l7.87988-2.62988a8.0003,8.0003,0,0,0,2.26661-13.98926L77.89111,142.4209a102.76148,102.76148,0,0,0-28.45428-14.99A55.97943,55.97943,0,0,1,88,112H372.46a132.19,132.19,0,0,0,82.99756-29.23047,53.61741,53.61741,0,0,0,7.855,6.38672,37.56,37.56,0,0,1,12.25488,13.5c.38184.71313.72638,1.44287,1.06031,2.177a63.10929,63.10929,0,0,0-34.28443,17.50952,8.00036,8.00036,0,0,0,.65918,11.9043L480,163.84521V208h-8a48,48,0,0,0-96,0H312a48.02383,48.02383,0,1,0-2.75214,16h69.50428a47.99014,47.99014,0,0,0,90.49572,0H488a8.00008,8.00008,0,0,0,8-8V120.33984A53.50524,53.50524,0,0,0,495.09424,110.5332ZM354.41016,32c3.92041,0,7.83984.19043,11.7207.56934L353.44171,96H312V80a7.9992,7.9992,0,0,0-6.05957-7.76074l-18.569-4.64209,5.65643-7.06983A75.63039,75.63039,0,0,1,352,32ZM276.37573,81.33984,296,86.24609V96H264.6463ZM177.62158,47.22266A199.00883,199.00883,0,0,1,254.16016,32h46.32043a92.32438,92.32438,0,0,0-19.9469,18.53223L244.15527,96H107.314l5.42286-5.42285A198.99407,198.99407,0,0,1,177.62158,47.22266ZM70.51953,156.8916a56.1864,56.1864,0,0,1-21.60693-.06348l-3.48828-.7041a24.054,24.054,0,0,1-10.7663-5.19091,54.8517,54.8517,0,0,1,4.29663-9.98462A86.77936,86.77936,0,0,1,68.291,155.2207ZM369.759,96l12.16541-60.812a120.50254,120.50254,0,0,1,58.309,32.35889l3.83172,3.83178A116.214,116.214,0,0,1,372.46,96ZM264,240a32,32,0,1,1,32-32A32.03635,32.03635,0,0,1,264,240Zm160,0a32,32,0,1,1,32-32A32.03635,32.03635,0,0,1,424,240Zm36.68359-112.09863A47.18491,47.18491,0,0,1,480,120.48682v22.86792Z"/><path d="M149.47021,167.58984l7.876,2.625a72.10884,72.10884,0,0,0,36.88867,2.29688l3.477-.69531a40.18119,40.18119,0,0,0,30.96094-29.52149l.78906-3.15722a13.9999,13.9999,0,0,0-16.32812-17.123l-9.75342,1.95117A102.81965,102.81965,0,0,0,162.10889,142.418L147.2002,153.59961a8.00072,8.00072,0,0,0,2.27,13.99023Zm22.23829-12.37109a86.71038,86.71038,0,0,1,34.81005-15.56348l6.6543-1.33105-.02246.08984A24.10794,24.10794,0,0,1,194.57373,156.127l-3.47607.69532a56.08053,56.08053,0,0,1-21.61621.0664Z"/><circle cx="264" cy="208" r="8"/><circle cx="424" cy="208" r="8"/><path d="M418.34326,122.34277A19.18715,19.18715,0,0,1,404.68652,128H400v16h4.68652a35.08383,35.08383,0,0,0,24.97022-10.34277Z"/><rect x="312" y="128" width="32" height="16"/></g></svg>
