<svg height="512pt" viewBox="0 0 512.00535 512" width="512pt" xmlns="http://www.w3.org/2000/svg" xmlns:xlink="http://www.w3.org/1999/xlink"><linearGradient id="a"><stop offset="0" stop-color="#662d91"/><stop offset=".437" stop-color="#3873b3"/><stop offset="1" stop-color="#00c9dd"/></linearGradient><linearGradient id="b" gradientTransform="matrix(1.32488 0 0 -1.32488 .000048 502.291634)" gradientUnits="userSpaceOnUse" x1="27.3704" x2="364.5159" xlink:href="#a" y1="351.7467" y2="14.6012"/><linearGradient id="c" gradientTransform="matrix(1.32488 0 0 -1.32488 .000048 502.291634)" gradientUnits="userSpaceOnUse" x1="27.383" x2="364.5285" xlink:href="#a" y1="351.7593" y2="14.6138"/><linearGradient id="d" gradientTransform="matrix(1.32488 0 0 -1.32488 .000048 502.291634)" gradientUnits="userSpaceOnUse" x1="27.3896" x2="364.5351" xlink:href="#a" y1="351.7659" y2="14.6204"/><path d="m4.507812 235.707031 51.085938 27.304688 1.65625 5.222656-25.761719 53.121094c-1.359375 2.796875-1.085937 6.113281.710938 8.652343l17.003906 24.015626c1.871094 2.632812 5.066406 3.988281 8.261719 3.496093l56.882812-8.753906 4.097656 3.0625 9.472657 58.480469c.503906 3.136718 2.710937 5.734375 5.726562 6.742187l27.503907 9.171875c3.078124 1.027344 6.476562.21875 8.761718-2.089844l41.019532-41.488281h4.898437l38.988281 39.429688-9.386718 19.535156c-1.335938 2.777344-1.070313 6.0625.699218 8.59375l6.828125 9.742187c1.863281 2.664063 5.082031 4.039063 8.292969 3.542969l34.800781-5.410156 8.976563 6.765625 5.820312 36.242188c.5 3.128906 2.695313 5.722656 5.699219 6.734374l11.09375 3.734376c3.082031 1.003906 6.460937.183593 8.746094-2.113282l25.105469-25.652344h10.890624l25.121094 25.652344c2.289063 2.335938 5.714844 3.15625 8.8125 2.113282l11.09375-3.726563c3.003906-1.011719 5.199219-3.605469 5.699219-6.734375l5.820313-36.257812 8.96875-6.757813 34.800781 5.417969c3.214843.5 6.4375-.875 8.300781-3.539063l6.828125-9.753906c1.769531-2.53125 2.039063-5.8125.699219-8.59375l-15.878906-32.949219 3.535156-11.261718 31.351562-16.933594c2.753906-1.488282 4.46875-4.367188 4.46875-7.5v-12.066406c0-3.132813-1.722656-6.011719-4.476562-7.5l-31.363282-16.921876-3.53125-11.261718 15.847657-32.957032c1.335937-2.78125 1.066406-6.066406-.699219-8.59375l-6.828125-9.746093c-1.863281-2.664063-5.082031-4.035157-8.292969-3.539063l-34.800781 5.410156-8.976563-6.769531-5.496093-34.21875c2.050781-1.589843 3.261719-4.027343 3.285156-6.621093v-29.695313c0-3.148437-1.730469-6.042969-4.503906-7.527344l-51.09375-27.304687-1.65625-5.222656 25.761719-53.105469c1.355468-2.796875 1.085937-6.113281-.710938-8.652344l-17.007812-24.011719c-1.867188-2.636718-5.066407-3.992187-8.257813-3.5l-56.886719 8.738282-4.09375-3.0625-9.472656-58.480469c-.503906-3.136719-2.710938-5.734375-5.726562-6.742188l-27.460938-9.171875c-3.082031-1.027344-6.476562-.21875-8.761719 2.089844l-41.019531 41.488281h-4.898438l-41.019531-41.460937c-2.28125-2.308594-5.679687-3.125-8.761719-2.097656l-27.503906 9.144531c-3.015625 1.007812-5.21875 3.605469-5.726562 6.742187l-9.46875 58.488282-4.097656 3.0625-56.839844-8.78125c-3.195313-.492188-6.390625.863281-8.261719 3.5l-17.007813 24.039062c-1.792968 2.539062-2.066406 5.855469-.707031 8.652344l25.761719 53.101562-1.65625 5.214844-51.085938 27.304688c-2.785156 1.492187-4.5195308 4.394531-4.507812 7.554687v29.695313c0 3.148437 1.730469 6.039062 4.507812 7.527343zm411.363282 44.875 14.609375 11.011719c1.84375 1.378906 4.167969 1.960938 6.445312 1.609375l33.105469-5.117187.90625 1.304687-15.136719 31.460937c-.941406 1.953126-1.101562 4.1875-.453125 6.253907l5.589844 17.785156c.671875 2.136719 2.15625 3.921875 4.128906 4.976563l29.867188 16.125v1.878906l-29.917969 16.128906c-1.953125 1.054688-3.414063 2.828125-4.078125 4.949219l-5.589844 17.78125c-.644531 2.066406-.484375 4.304687.449219 6.257812l15.148437 31.496094-.914062 1.304687-33.109375-5.121093c-2.277344-.347657-4.597656.234375-6.441406 1.613281l-14.609375 10.996094c-1.761719 1.332031-2.9375 3.292968-3.285156 5.472656l-5.546876 34.558594-1.101562.367187-23.894531-24.347656c-1.601563-1.632813-3.792969-2.554687-6.082031-2.558594h-18.058594c-2.292969 0-4.488282.925781-6.09375 2.558594l-23.890625 24.382813-1.109375-.375-5.546875-34.542969c-.347657-2.179688-1.523438-4.140625-3.285157-5.472657l-14.609374-11.007812c-1.84375-1.378906-4.167969-1.960938-6.445313-1.613281l-33.109375 5.121093-.902344-1.304687 9.957032-20.710937 20.183593-6.730469c3.011719-1.007813 5.21875-3.605469 5.722657-6.742188l5.660156-34.867187c4.640625 34.566406 36.425781 58.820312 70.988281 54.179687 34.566406-4.644531 58.824219-36.425781 54.179687-70.992187-3.128906-23.300782-18.941406-42.929688-41.039062-50.953125l-19.148438-39.472657 1.65625-5.214843 36.316407-19.429688 5.195312 31.507813c.34375 2.1875 1.523438 4.15625 3.289063 5.492187zm-95.019532 86.347657c.003907-5.601563 1.023438-11.15625 3.015626-16.390626l45.335937 6.988282c3.195313.511718 6.402344-.847656 8.261719-3.5l17.007812-24.019532c20.40625 15.207032 24.617188 44.078126 9.40625 64.484376-15.207031 20.40625-44.078125 24.617187-64.484375 9.410156-11.671875-8.703125-18.546875-22.410156-18.542969-36.972656zm-303.785156-163.335938 49.640625-26.554688c1.964844-1.046874 3.445313-2.824218 4.109375-4.949218l3.722656-11.769532c.660157-2.082031.5-4.335937-.453124-6.304687l-25.042969-51.617187 11.039062-15.597657 55.160157 8.53125c2.269531.351563 4.582031-.226562 6.417968-1.601562l9.71875-7.28125c1.777344-1.324219 2.964844-3.285157 3.320313-5.46875l9.199219-56.789063 17.570312-5.863281 39.78125 40.242187c1.597656 1.632813 3.785156 2.554688 6.066406 2.558594h12.035156c2.28125-.003906 4.46875-.925781 6.066407-2.558594l39.78125-40.242187 17.570312 5.863281 9.199219 56.789063c.355469 2.183593 1.542969 4.144531 3.316406 5.46875l9.722656 7.28125c1.835938 1.375 4.148438 1.953125 6.414063 1.601562l55.160156-8.53125 11.042969 15.597657-25.046875 51.628906c-.953125 1.960937-1.117187 4.214844-.449219 6.296875l3.71875 11.765625c.671875 2.128906 2.148438 3.90625 4.113282 4.957031l49.636718 26.546875v19.472656l-49.636718 26.558594c-1.96875 1.042969-3.445313 2.820312-4.113282 4.949219l-3.71875 11.765625c-.664062 2.082031-.5 4.339844.449219 6.308594l25.046875 51.617187-11.042969 15.601563-55.160156-8.535157c-2.265625-.351562-4.578125.226563-6.414063 1.605469l-9.722656 7.277344c-1.773437 1.324218-2.960937 3.285156-3.316406 5.46875l-9.199219 56.792968-17.570312 5.859376-39.78125-40.242188c-1.597657-1.628906-3.785157-2.550781-6.066407-2.558594h-11.992187c-2.28125.007813-4.46875.929688-6.066406 2.558594l-39.78125 40.242188-17.570313-5.859376-9.199218-56.792968c-.355469-2.183594-1.542969-4.144532-3.316407-5.46875l-9.722656-7.277344c-1.835937-1.375-4.148437-1.957031-6.414063-1.605469l-55.160156 8.535157-11.085937-15.601563 25.042969-51.625c.953124-1.964844 1.113281-4.21875.453124-6.296875l-3.710937-11.769531c-.671875-2.125-2.148437-3.90625-4.113281-4.957031l-49.648438-26.546876zm0 0" fill="url(#b)"/><path d="m213.332031 290.132812c42.417969 0 76.800781-34.386718 76.800781-76.800781 0-42.417969-34.382812-76.800781-76.800781-76.800781-42.414062 0-76.800781 34.382812-76.800781 76.800781.050781 42.394531 34.40625 76.753907 76.800781 76.800781zm0-136.535156c32.992188 0 59.734375 26.746094 59.734375 59.734375s-26.742187 59.734375-59.734375 59.734375c-32.988281 0-59.730469-26.746094-59.730469-59.734375.035157-32.972656 26.757813-59.695312 59.730469-59.734375zm0 0" fill="url(#c)"/><path d="m213.332031 335.640625c67.550781 0 122.308594-54.757813 122.308594-122.308594 0-67.546875-54.757813-122.308593-122.308594-122.308593-67.546875 0-122.304687 54.761718-122.304687 122.308593.078125 67.515625 54.789062 122.230469 122.304687 122.308594zm0-227.550781c58.125 0 105.242188 47.117187 105.242188 105.242187s-47.117188 105.242188-105.242188 105.242188c-58.121093 0-105.242187-47.117188-105.242187-105.242188.0625-58.097656 47.144531-105.179687 105.242187-105.242187zm0 0" fill="url(#d)"/></svg>