<svg height="512pt" viewBox="0 -51 512.00397 512" width="512pt" xmlns="http://www.w3.org/2000/svg" xmlns:xlink="http://www.w3.org/1999/xlink"><linearGradient id="a"><stop offset="0" stop-color="#662d91"/><stop offset=".437" stop-color="#3873b3"/><stop offset="1" stop-color="#00c9dd"/></linearGradient><linearGradient id="b" gradientTransform="matrix(1.32488 0 0 -1.32488 0 468.129103)" gradientUnits="userSpaceOnUse" x1="12.0173" x2="339.0829" xlink:href="#a" y1="317.0468" y2="-10.0188"/><linearGradient id="c" gradientTransform="matrix(1.32488 0 0 -1.32488 0 468.129103)" gradientUnits="userSpaceOnUse" x1="17.7123" x2="344.7779" xlink:href="#a" y1="322.7417" y2="-4.3239"/><linearGradient id="d" gradientTransform="matrix(1.32488 0 0 -1.32488 0 468.129103)" gradientUnits="userSpaceOnUse" x1="107.884" x2="434.9496" xlink:href="#a" y1="412.9134" y2="85.8478"/><linearGradient id="e" gradientTransform="matrix(1.32488 0 0 -1.32488 0 468.129103)" gradientUnits="userSpaceOnUse" x1="85.3411" x2="412.4066" xlink:href="#a" y1="390.3705" y2="63.3049"/><linearGradient id="f" gradientTransform="matrix(1.32488 0 0 -1.32488 0 468.129103)" gradientUnits="userSpaceOnUse" x1="-4.8306" x2="322.235" xlink:href="#a" y1="300.1988" y2="-26.8668"/><linearGradient id="g" gradientTransform="matrix(1.32488 0 0 -1.32488 0 468.129103)" gradientUnits="userSpaceOnUse" x1="95.0023" x2="422.0679" xlink:href="#a" y1="400.0317" y2="72.9662"/><linearGradient id="h" gradientTransform="matrix(1.32488 0 0 -1.32488 0 468.129103)" gradientUnits="userSpaceOnUse" x1="117.5452" x2="444.6108" xlink:href="#a" y1="422.5746" y2="95.5091"/><linearGradient id="i" gradientTransform="matrix(1.32488 0 0 -1.32488 0 468.129103)" gradientUnits="userSpaceOnUse" x1="0" x2="327.0656" xlink:href="#a" y1="305.0294" y2="-22.0361"/><path d="m486.253906 191.925781c-1.953125-7.433593-8.636718-12.640625-16.324218-12.722656h-94.460938c-9.667969.265625-17.296875 8.296875-17.070312 17.960937v101.503907h-68.488282c3.878906-5.023438 6.578125-10.855469 7.894532-17.066407h34.996093c4.710938 0 8.535157-3.820312 8.535157-8.53125v-59.734374c-.003907-4-2.78125-7.460938-6.683594-8.328126l-74.386719-16.53125-49.441406-49.441406c-1.597657-1.597656-3.761719-2.496094-6.023438-2.5h-145.066406c-2.265625 0-4.433594.902344-6.035156 2.5l-51.199219 51.199219c-1.601562 1.601563-2.5 3.769531-2.5 6.035156v68.265625c0 3.914063 2.664062 7.328125 6.460938 8.277344l28.363281 7.089844c1.109375 6.824218 3.878906 13.269531 8.066406 18.765625h-25.824219c-4.710937 0-8.53125 3.820312-8.53125 8.535156v59.730469c0 4.714844 3.820313 8.535156 8.53125 8.535156h43.519532c4.691406 23.09375 27.210937 38.011719 50.304687 33.324219 16.789063-3.410157 29.914063-16.53125 33.324219-33.324219h18.773437c4.6875 23.09375 27.210938 38.011719 50.304688 33.324219 16.789062-3.410157 29.914062-16.53125 33.324219-33.324219h146.773437c4.6875 23.09375 27.207031 38.011719 50.300781 33.324219 16.792969-3.410157 29.914063-16.53125 33.324219-33.324219h26.453125c4.714844 0 8.535156-3.820312 8.535156-8.535156v-83.410156c0-1.777344-.25-3.542969-.742187-5.25zm-161.988281 72.609375h-26.453125c-.609375-2.933594-1.535156-5.792968-2.753906-8.53125h29.207031zm-68.265625-59.527344 68.265625 15.152344v18.773438h-42.664063v.222656c-7.34375-5.648438-16.339843-8.722656-25.601562-8.753906zm25.601562 68.058594c0 14.140625-11.460937 25.601563-25.601562 25.601563-14.136719 0-25.597656-11.460938-25.597656-25.601563 0-14.136718 11.460937-25.597656 25.597656-25.597656 14.140625 0 25.601562 11.460938 25.601562 25.597656zm-145.070312-119.464844h64.734375l34.132813 34.132813h-98.867188zm0 51.199219h102.402344v29.21875c-12.707032 5.558594-21.933594 16.933594-24.746094 30.515625h-77.65625zm85.558594 93.867188h-111.378906c3.878906-5.023438 6.578124-10.855469 7.894531-17.066407h95.582031c1.320312 6.210938 4.019531 12.042969 7.902344 17.066407zm-158.824219-145.066407h56.199219v34.132813h-90.332032zm-27.648437 108.910157-18.550782-4.640625v-53.070313h102.402344v59.734375h-.855469c-4.648437-23.042968-27.101562-37.953125-50.140625-33.304687-16.054687 3.238281-28.828125 15.402343-32.84375 31.28125zm66.78125 10.554687c0 14.140625-11.460938 25.601563-25.597657 25.601563-14.140625 0-25.601562-11.460938-25.601562-25.601563 0-14.136718 11.460937-25.597656 25.601562-25.597656 14.136719 0 25.597657 11.460938 25.597657 25.597656zm0 119.46875c-14.136719 0-25.597657-11.460937-25.597657-25.601562 0-14.136719 11.460938-25.601563 25.597657-25.601563 14.140624 0 25.601562 11.464844 25.601562 25.601563 0 14.140625-11.460938 25.601562-25.601562 25.601562zm102.402343 0c-14.140625 0-25.601562-11.460937-25.601562-25.601562 0-14.136719 11.464843-25.601563 25.601562-25.601563s25.601563 11.464844 25.601563 25.601563c0 14.140625-11.464844 25.601562-25.601563 25.601562zm153.597657-34.132812h-111.785157c-4.6875-23.09375-27.210937-38.011719-50.304687-33.324219-16.789063 3.410156-29.914063 16.53125-33.324219 33.324219h-18.773437c-4.6875-23.09375-27.210938-38.011719-50.304688-33.324219-16.789062 3.410156-29.910156 16.53125-33.320312 33.324219h-34.984376v-42.667969h332.800782v42.667969zm121.105468-128.332032 9.949219 34.464844h-79.851563v-34.132812h68.265626c.554687-.054688 1.105468-.167969 1.636718-.332032zm-44.304687 162.464844c-14.136719 0-25.597657-11.460937-25.597657-25.601562 0-14.136719 11.460938-25.601563 25.597657-25.601563 14.140625 0 25.601562 11.464844 25.601562 25.601563 0 14.140625-11.460937 25.601562-25.601562 25.601562zm59.734375-76.800781h-17.066406v-8.53125h17.066406zm0-25.597656h-25.601563c-4.710937 0-8.535156 3.820312-8.535156 8.53125v25.601562c0 4.710938 3.824219 8.53125 8.535156 8.53125h25.601563v25.601563h-17.921875c-4.6875-23.09375-27.210938-38.011719-50.304688-33.324219-16.789062 3.410156-29.910156 16.53125-33.320312 33.324219h-17.921875v-161.238282c0-.546874.214844-.851562.058594-.894531l94.335937.398438 4.8125 16.667969h-73.609375c-4.710938 0-8.53125 3.820312-8.53125 8.53125v51.203124c0 4.710938 3.820312 8.53125 8.53125 8.53125h93.3125l.554688 1.921876v6.613281zm0 0" fill="url(#b)"/><path d="m42.667969 85.335938h68.265625v17.066406h-68.265625zm0 0" fill="url(#c)"/><path d="m324.265625 128h68.269531v17.070312h-68.269531zm0 0" fill="url(#d)"/><path d="m290.132812 128h17.066407v17.070312h-17.066407zm0 0" fill="url(#e)"/><path d="m8.535156 85.335938h17.066406v17.066406h-17.066406zm0 0" fill="url(#f)"/><path d="m187.734375.00390625h17.066406v17.06640575h-17.066406zm0 0" fill="url(#g)"/><path d="m221.867188.00390625h68.265624v17.06640575h-68.265624zm0 0" fill="url(#h)"/><path d="m153.601562 213.335938h8.53125v17.066406h-8.53125zm0 0" fill="url(#i)"/></svg>