<svg height="512pt" viewBox="0 -9 512.00397 512" width="512pt" xmlns="http://www.w3.org/2000/svg" xmlns:xlink="http://www.w3.org/1999/xlink"><linearGradient id="a"><stop offset="0" stop-color="#662d91"/><stop offset=".437" stop-color="#3873b3"/><stop offset="1" stop-color="#00c9dd"/></linearGradient><linearGradient id="b" gradientTransform="matrix(1.32488 0 0 -1.32488 0 493.751989)" gradientUnits="userSpaceOnUse" x1="-.667" x2="344.4587" xlink:href="#a" y1="323.6941" y2="-21.4316"/><linearGradient id="c" gradientTransform="matrix(1.32488 0 0 -1.32488 0 493.751989)" gradientUnits="userSpaceOnUse" x1="-59.5834" x2="285.5423" xlink:href="#a" y1="264.7777" y2="-80.348"/><linearGradient id="d" gradientTransform="matrix(1.32488 0 0 -1.32488 0 493.751989)" gradientUnits="userSpaceOnUse" x1="62.7925" x2="407.9182" xlink:href="#a" y1="387.1536" y2="42.0279"/><linearGradient id="e" gradientTransform="matrix(1.32488 0 0 -1.32488 0 493.751989)" gradientUnits="userSpaceOnUse" x1="1.6102" x2="346.7359" xlink:href="#a" y1="325.9713" y2="-19.1544"/><linearGradient id="f" gradientTransform="matrix(1.32488 0 0 -1.32488 0 493.751989)" gradientUnits="userSpaceOnUse" x1="86.9532" x2="432.0789" xlink:href="#a" y1="411.3143" y2="66.1886"/><linearGradient id="g" gradientTransform="matrix(1.32488 0 0 -1.32488 0 493.751989)" gradientUnits="userSpaceOnUse" x1="178.7332" x2="523.8589" xlink:href="#a" y1="503.0942" y2="157.9686"/><path d="m494.933594 366.945312v-87.550781c0-6.109375-2.1875-12.019531-6.160156-16.660156l-35.015626-40.855469h24.109376c4.710937 0 8.53125-3.820312 8.53125-8.535156v-42.664062c0-4.714844-3.820313-8.535157-8.53125-8.535157h-53.957032l-27.699218-69.246093c-3.863282-9.738282-13.289063-16.121094-23.765626-16.085938h-24.210937c-9.386719-50.941406-58.292969-84.628906-109.234375-75.242188-38.253906 7.050782-68.1875 36.984376-75.238281 75.242188h-24.210938c-10.476562-.03125-19.90625 6.351562-23.773437 16.09375l-27.6875 69.238281h-62.488282c-4.714843 0-8.535156 3.820313-8.535156 8.535157v42.664062c0 4.714844 3.820313 8.535156 8.535156 8.535156h32.648438l-34.988281 40.859375c-3.984375 4.632813-6.183594 10.542969-6.191407 16.65625v87.550781c-9.429687 0-17.070312 7.640626-17.070312 17.066407v34.132812c0 9.425781 7.640625 17.066407 17.066406 17.066407h17.066406v42.667968c0 9.425782 7.640626 17.066406 17.070313 17.066406h68.265625c9.425781 0 17.066406-7.640624 17.066406-17.066406v-42.667968h238.933594v42.667968c0 9.425782 7.640625 17.066406 17.066406 17.066406h68.265625c9.425781 0 17.070313-7.640624 17.070313-17.066406v-42.667968h17.066406c9.425781 0 17.066406-7.640626 17.066406-17.066407v-34.132812c-.003906-9.425781-7.644531-17.066407-17.070312-17.066407zm-25.601563-187.734374v25.601562h-27.585937c-1.433594-2.507812-2.726563-5.09375-3.867188-7.746094l-7.140625-17.851562h38.59375zm-213.332031-162.132813c42.417969.003906 76.796875 34.386719 76.796875 76.804687 0 42.414063-34.386719 76.796876-76.804687 76.796876-39.929688 0-73.195313-30.601563-76.527344-70.390626-.171875-2.144531-.265625-4.25-.265625-6.410156.046875-42.394531 34.40625-76.753906 76.800781-76.800781zm-87.382812 110.933594c18.792968 48.25 73.140624 72.132812 121.390624 53.34375 24.464844-9.527344 43.8125-28.878907 53.339844-53.34375h17.613282l27.921874 76.800781h-265.765624l27.921874-76.800781zm-134.484376 76.800781v-25.601562h47.128907l-7.132813 17.851562c-1.144531 2.652344-2.4375 5.238281-3.867187 7.75zm0 74.582031c0-2.039062.730469-4.011719 2.054688-5.554687l37.898438-44.210938c6.699218-7.816406 12.0625-16.675781 15.878906-26.234375l41.660156-104.105469c1.285156-3.257812 4.425781-5.402343 7.929688-5.410156h22.578124c0 2.628906.109376 5.230469.324219 7.808594.257813 3.105469.675781 6.195312 1.246094 9.257812h-18.636719c-3.585937 0-6.792968 2.242188-8.019531 5.613282l-34.132813 93.867187c-1.613281 4.429688.671876 9.328125 5.097657 10.9375.9375.339844 1.925781.515625 2.921875.515625h290.132812c4.714844 0 8.535156-3.820312 8.539063-8.53125 0-.996094-.175781-1.984375-.515625-2.921875l-34.136719-93.867187c-1.226563-3.371094-4.433594-5.613282-8.019531-5.613282h-18.695313c1.0625-5.625 1.605469-11.339843 1.628907-17.066406h22.578124c3.488282 0 6.621094 2.121094 7.917969 5.359375l41.667969 104.15625c3.816406 9.554688 9.183594 18.414063 15.882812 26.222657l37.894532 44.222656c1.328125 1.542968 2.058594 3.515625 2.058594 5.554687v87.550781h-443.734376zm17.066407 198.484375v-42.667968h68.269531v42.667968zm341.332031 0v-42.667968h68.269531v42.667968zm76.800781-59.734375h-452.265625v-34.132812h477.867188v34.132812zm0 0" fill="url(#b)"/><path d="m93.867188 273.078125c-23.566407 0-42.667969 19.101563-42.667969 42.667969 0 23.5625 19.101562 42.664062 42.667969 42.664062 23.5625 0 42.664062-19.101562 42.664062-42.664062-.027344-23.554688-19.113281-42.640625-42.664062-42.667969zm0 68.269531c-14.140626 0-25.601563-11.464844-25.601563-25.601562 0-14.136719 11.460937-25.601563 25.601563-25.601563 14.136718 0 25.601562 11.464844 25.601562 25.601563 0 14.136718-11.464844 25.601562-25.601562 25.601562zm0 0" fill="url(#c)"/><path d="m418.132812 273.078125c-23.5625 0-42.664062 19.101563-42.664062 42.667969 0 23.5625 19.101562 42.664062 42.664062 42.664062 23.566407 0 42.667969-19.101562 42.667969-42.664062-.027343-23.554688-19.113281-42.640625-42.667969-42.667969zm0 68.269531c-14.136718 0-25.601562-11.464844-25.601562-25.601562 0-14.136719 11.464844-25.601563 25.601562-25.601563 14.140626 0 25.601563 11.464844 25.601563 25.601563 0 14.136718-11.464844 25.601562-25.601563 25.601562zm0 0" fill="url(#d)"/><path d="m341.332031 281.613281h-170.664062c-4.714844 0-8.535157 3.820313-8.535157 8.53125v51.203125c0 4.710938 3.820313 8.53125 8.535157 8.53125h170.667969c4.710937 0 8.53125-3.820312 8.53125-8.53125v-51.203125c0-4.710937-3.820313-8.53125-8.535157-8.53125zm-8.53125 51.199219h-153.601562v-8.535156h153.601562zm0-25.601562h-153.601562v-8.53125h153.601562zm0 0" fill="url(#e)"/><path d="m223.574219 133.132812c1.433593 1.90625 3.597656 3.125 5.972656 3.363282.285156.03125.570313.046875.855469.050781 2.066406.003906 4.0625-.746094 5.621094-2.109375l68.269531-59.734375c3.546875-3.105469 3.90625-8.5.800781-12.046875-3.105469-3.550781-8.5-3.910156-12.046875-.800781l-61.339844 53.675781-20.078125-26.769531c-2.828125-3.773438-8.175781-4.535157-11.945312-1.707031-3.773438 2.828124-4.535156 8.175781-1.707032 11.945312zm0 0" fill="url(#f)"/><path d="m503.464844 42.679688c-18.851563 0-34.132813-15.285157-34.132813-34.132813 0-4.714844-3.820312-8.5351562-8.53125-8.5351562-4.714843 0-8.535156 3.8203122-8.535156 8.5351562 0 18.851563-15.28125 34.132813-34.132813 34.132813-4.710937 0-8.53125 3.820312-8.53125 8.53125 0 4.714843 3.820313 8.535156 8.53125 8.535156 18.851563 0 34.132813 15.28125 34.132813 34.132812 0 4.710938 3.820313 8.53125 8.535156 8.53125 4.710938 0 8.53125-3.820312 8.53125-8.53125 0-18.851562 15.285157-34.132812 34.132813-34.132812 4.714844 0 8.535156-3.820313 8.535156-8.535156 0-4.710938-3.820312-8.53125-8.535156-8.53125zm-42.664063 22.953124c-3.800781-5.71875-8.703125-10.621093-14.421875-14.421874 5.71875-3.796876 10.621094-8.699219 14.421875-14.421876 3.800781 5.722657 8.699219 10.625 14.421875 14.421876-5.722656 3.800781-10.621094 8.703124-14.421875 14.421874zm0 0" fill="url(#g)"/><path d="m34.132812 136.546875c0 4.710937 3.820313 8.53125 8.535157 8.53125 4.710937 0 8.53125-3.820313 8.53125-8.53125 0-14.140625 11.460937-25.601563 25.601562-25.601563 4.710938 0 8.535157-3.820312 8.535157-8.535156 0-4.710937-3.824219-8.53125-8.535157-8.53125-14.140625 0-25.601562-11.460937-25.601562-25.601562 0-4.710938-3.820313-8.53125-8.53125-8.53125-4.714844 0-8.535157 3.820312-8.535157 8.53125 0 14.140625-11.460937 25.601562-25.601562 25.601562-4.710938 0-8.53125 3.820313-8.53125 8.53125 0 4.714844 3.820312 8.535156 8.535156 8.535156 14.136719 0 25.597656 11.460938 25.597656 25.601563zm8.535157-42.933594c2.484375 3.347657 5.449219 6.3125 8.796875 8.800781-3.347656 2.484376-6.3125 5.449219-8.796875 8.796876-2.488281-3.347657-5.453125-6.3125-8.800781-8.796876 3.347656-2.488281 6.3125-5.453124 8.800781-8.800781zm0 0" fill="url(#e)"/></svg>